<?xml version="1.0" encoding="UTF-8"?>
<svg width="36px" height="36px" viewBox="0 0 36 36" version="1.1" xmlns="http://www.w3.org/2000/svg" xmlns:xlink="http://www.w3.org/1999/xlink">
    <!-- Generator: Sketch 49.1 (51147) - http://www.bohemiancoding.com/sketch -->
    <title>Group 2</title>
    <desc>Created with Sketch.</desc>
    <defs></defs>
    <g id="Page-1" stroke="none" stroke-width="1" fill="none" fill-rule="evenodd">
        <g id="规范" transform="translate(-187.000000, -60.000000)">
            <g id="Group-2" transform="translate(187.000000, 60.000000)">
                <g id="Logo-small">
                    <circle id="Oval-3" fill="#333333" cx="18" cy="18" r="18"></circle>
                    <path d="M18,36 C8.0588745,36 0,27.9411255 0,18 C0,8.0588745 8.0588745,0 18,0 C27.9411255,0 36,8.0588745 36,18 C36,27.9411255 27.9411255,36 18,36 Z M18,31 C25.1797017,31 31,25.1797017 31,18 C31,10.8202983 25.1797017,5 18,5 C10.8202983,5 5,10.8202983 5,18 C5,25.1797017 10.8202983,31 18,31 Z" id="Combined-Shape" fill="#1B76DF"></path>
                </g>
                <path d="M25.8688319,4.08285737 L21.4977222,14.0302881 C21.1346054,14.8566412 20.2629897,15.33737 19.3703397,15.2036198 L15.7617336,14.662924 C14.8828876,14.5312421 14.022557,14.9952456 13.6498124,15.8019499 L12,19.37252 L27.8724087,25.8814506 L29.3798403,22.3575414 C29.755486,21.4793978 29.4577946,20.4581922 28.6691159,19.9194607 L25.9085671,18.0337819 C25.1253937,17.4988109 24.8256638,16.4873318 25.1909374,15.6120435 L29.3031406,5.75816117 C29.7096681,4.78401808 29.2891545,3.66165352 28.3426064,3.19446403 L28.3283827,3.18744362 C27.4314861,2.74476075 26.3455425,3.11297369 25.9028596,4.00987024 C25.8909774,4.03394406 25.8796321,4.05827912 25.8688319,4.08285737 Z" id="Path-2" fill="#883600"></path>
                <path d="M25.4167283,3.64870243 L21.0456186,13.5961332 C20.6825018,14.4224862 19.8108861,14.9032151 18.9182361,14.7694648 L15.30963,14.2287691 C14.430784,14.0970872 13.5704534,14.5610906 13.1977088,15.367795 L11.5478964,18.938365 L27.4203051,25.4472956 L28.9277368,21.9233864 C29.3033825,21.0452429 29.005691,20.0240373 28.2170123,19.4853058 L25.4564635,17.5996269 C24.6732901,17.064656 24.3735602,16.0531768 24.7388338,15.1778885 L28.851037,5.32400623 C29.2575645,4.34986314 28.8370509,3.22749858 27.8905028,2.76030909 L27.8762791,2.75328868 C26.9793826,2.31060581 25.8934389,2.67881875 25.450756,3.5757153 C25.4388739,3.59978912 25.4275285,3.62412418 25.4167283,3.64870243 Z" id="Path-2" fill="#B7682F"></path>
                <path d="M11.7869349,20 C10.7867539,23.3137712 9.1911089,25.6255845 7,26.9354398 C11.4033752,31.4857181 15.7231953,30.7215739 21.837837,33.9298889 C24.1672952,32.5683798 26.0577382,30.0766877 27.5091661,26.4548124 L11.7869349,20 Z" id="Path-3" fill="#B3762D"></path>
                <path d="M11.5336912,19.1955443 C10.5335101,22.5093155 8.93786518,24.8211287 6.74675628,26.1309841 C11.1501314,30.6812624 15.4699515,29.9171181 21.5845933,33.1254331 C23.9140515,31.7639241 25.8044945,29.2722319 27.2559223,25.6503567 L11.5336912,19.1955443 Z" id="Path-3" fill="#ED9D3C"></path>
                <path d="M7.93457534,27.3093086 C8.49139871,27.1148094 9.29217962,26.4127697 10.3369181,25.2031895 C10.0041344,26.2996385 9.45544194,27.1912052 8.6908408,27.8778896 L7.93457534,27.3093086 Z" id="Path-4" fill="#B3762D"></path>
                <path d="M10.8503082,29.5625743 C10.8541237,29.3404568 11.1906804,28.972985 11.8599783,28.4601588 C11.5670891,28.979954 11.3988108,29.4012421 11.3551432,29.7240232 L10.8503082,29.5625743 Z" id="Path-4" fill="#B3762D"></path>
                <path d="M9.39323145,28.5238609 C9.64678235,28.4272629 10.0163893,28.1361283 10.5020523,27.6504572 C10.3798541,28.0285753 10.2148662,28.4551281 10.0070884,28.9301156 L9.39323145,28.5238609 Z" id="Path-4" fill="#B3762D"></path>
                <path d="M14.0338353,30.7522407 C13.8991694,30.7635731 14.1664853,30.5128262 14.8357832,30 C14.542894,30.5197952 14.4317125,30.8168262 14.5022385,30.8910928 L14.0338353,30.7522407 Z" id="Path-4" fill="#B3762D"></path>
                <path d="M15,30.7522407 C15.2560375,30.5477778 15.5233535,30.2970309 15.8019479,30 C15.6560662,30.3687167 15.5448846,30.6657476 15.4684032,30.8910928 L15,30.7522407 Z" id="Path-4" fill="#B3762D"></path>
                <path d="M18,31.7522407 C18.2560375,31.5477778 18.5233535,31.2970309 18.8019479,31 C18.6560662,31.3687167 18.5448846,31.6657476 18.4684032,31.8910928 L18,31.7522407 Z" id="Path-4" fill="#B3762D"></path>
                <path d="M20,32.7522407 C20.2560375,32.5477778 20.5233535,32.2970309 20.8019479,32 C20.6560662,32.3687167 20.5448846,32.6657476 20.4684032,32.8910928 L20,32.7522407 Z" id="Path-4" fill="#B3762D"></path>
                <path d="M20.9976354,33.3814984 C21.0328862,33.1999332 21.1898088,32.9606352 21.4684032,32.6636042 C21.3225215,33.0323209 21.3225215,33.3375067 21.4684032,33.5791617 L20.9976354,33.3814984 Z" id="Path-4" fill="#B3762D"></path>
                <path d="M12.0289164,29.9217385 C12.791949,29.5875711 14.1126654,28.1254893 15.9910654,25.5354932 C15.1293609,27.7730409 14.1901609,29.321191 13.1734653,30.1799434 L12.0289164,29.9217385 Z" id="Path-4" fill="#B3762D"></path>
                <path d="M19,32.1799434 C19.8325931,31.7544144 21.0933918,30.5329594 22.7823963,28.5155784 C21.7501449,30.4631283 20.7265029,31.7662317 19.7114702,32.4248885 L19,32.1799434 Z" id="Path-4" fill="#B3762D"></path>
                <path d="M16,31.1799434 C16.6286551,30.9942597 17.3771846,30.0768998 18.2455884,28.4278637 C17.7951493,30.0028675 17.3820792,31.0530926 17.006378,31.5785392 L16,31.1799434 Z" id="Path-4" fill="#B3762D"></path>
            </g>
        </g>
    </g>
</svg>