<?xml version="1.0" encoding="UTF-8"?>
<svg width="14px" height="14px" viewBox="0 0 14 14" version="1.1" xmlns="http://www.w3.org/2000/svg" xmlns:xlink="http://www.w3.org/1999/xlink">
    <!-- Generator: Sketch 49.1 (51147) - http://www.bohemiancoding.com/sketch -->
    <title>icon-set</title>
    <desc>Created with Sketch.</desc>
    <defs></defs>
    <g id="Page-1" stroke="none" stroke-width="1" fill="none" fill-rule="evenodd">
        <g id="规范" transform="translate(-111.000000, -244.000000)" fill="#4A4A4A" fill-rule="nonzero">
            <g id="icon-set" transform="translate(111.000000, 244.000000)">
                <path d="M13.1228125,5.67220313 L13.1227813,5.67220313 L12.0009531,5.4230625 C11.9135469,5.143875 11.7995937,4.87621875 11.6677656,4.61879688 L12.2747813,3.60835938 C12.5014844,3.24585938 12.6154531,2.71332813 12.2747813,2.37196875 L11.6562188,1.75404687 C11.489625,1.58673438 11.2656875,1.51645313 11.0396406,1.51645313 C10.8055,1.51645313 10.5685313,1.5929375 10.39175,1.7158125 L9.4078125,2.3425625 C9.15245313,2.21010938 8.8861875,2.09676563 8.60898438,2.00664063 L8.35709375,0.8719375 C8.282,0.45546875 7.91803125,0.004875 7.43539063,0.004875 L6.56145313,0.004875 C6.0786875,0.004875 5.78309375,0.4623125 5.68751563,0.87878125 L5.40684375,1.9998125 C5.11126563,2.09403125 4.82648438,2.21482813 4.55614063,2.35757813 L3.54773438,1.71578125 C3.37021875,1.59289063 3.13396875,1.51642188 2.89910938,1.51642188 C2.67379688,1.51642188 2.44985938,1.5866875 2.28254688,1.75401562 L1.6646875,2.3719375 C1.3233125,2.71328125 1.43801563,3.24584375 1.6646875,3.6083125 L2.30303125,4.67203125 C2.18359375,4.91373438 2.07707813,5.16225 1.99514063,5.42303125 L0.874046875,5.6721875 C0.457578125,5.747375 0.0069375,6.11123438 0.0069375,6.59398438 L0.0069375,7.46789063 C0.0069375,7.95053125 0.464390625,8.24621875 0.880875,8.34179688 L2.01626563,8.62507813 C2.09484375,8.86614062 2.19240625,9.09753125 2.30376563,9.32146875 L1.66471875,10.3865469 C1.43803125,10.748375 1.32398438,11.2809219 1.66471875,11.6222813 L2.28328125,12.2402188 C2.44989063,12.4074687 2.6738125,12.4784688 2.89976563,12.4784688 C3.134,12.4784688 3.370875,12.402 3.54775,12.279125 L4.55825,11.6346094 C4.830625,11.778625 5.11675,11.900875 5.41442188,11.9950938 L5.694375,13.1134219 C5.78996875,13.529875 6.08554688,13.9873438 6.5683125,13.9873438 L7.44226563,13.9873438 C7.92492187,13.9873438 8.28889063,13.5367188 8.36396875,13.1202656 L8.615875,11.9821719 C8.89032813,11.8933438 9.15389063,11.7813438 9.40585938,11.6510156 L10.3917969,12.279125 C10.5685625,12.4020313 10.8055625,12.4785 11.0396875,12.4785 C11.2657344,12.4785 11.4896875,12.4074687 11.6562656,12.24025 L12.2748281,11.6223125 C12.6155,11.2809531 12.5015313,10.7484063 12.2748281,10.3865469 L11.6671719,9.37471875 C11.7893438,9.13440625 11.8952344,8.88454687 11.9805313,8.62509375 L13.1160156,8.34178125 C13.5325,8.24623437 13.9899531,7.95054687 13.9899531,7.467875 L13.9899531,6.59396875 C13.9899063,6.11126563 13.5393125,5.74739063 13.1228125,5.67220313 Z M7.0106875,9.10982812 C5.84517187,9.10982812 4.89610937,8.16354687 4.89610937,7.00153125 C4.89610937,5.83951562 5.84515625,4.89389062 7.0106875,4.89389062 C8.176125,4.89389062 9.12454687,5.83951562 9.12454687,7.00153125 C9.12454687,8.16354687 8.176125,9.10982812 7.0106875,9.10982812 Z" id="Shape"></path>
            </g>
        </g>
    </g>
</svg>